<svg width="198" height="198" viewBox="0 0 198 198" fill="none" xmlns="http://www.w3.org/2000/svg">
<path d="M198 99C198 153.676 153.676 198 99 198C44.3238 198 0 153.676 0 99C0 44.3238 44.3238 0 99 0C153.676 0 198 44.3238 198 99Z" fill="#676767"/>
<path d="M141 78.5C141 101.42 122.196 120 99 120C75.804 120 57 101.42 57 78.5C57 55.5802 75.804 37 99 37C122.196 37 141 55.5802 141 78.5Z" fill="#9F9F9F"/>
<path d="M98.8789 130.66C128.615 130.66 155.32 143.508 173.638 163.902C155.487 184.792 128.725 198 98.8789 198C69.0325 198 42.271 184.792 24.1201 163.902C42.4381 143.508 69.1429 130.66 98.8789 130.66Z" fill="#9F9F9F"/>
</svg>
