<svg width="64" height="64" viewBox="0 0 64 64" fill="none" xmlns="http://www.w3.org/2000/svg">
<path d="M0 10C0 4.47715 4.47715 0 10 0H54C59.5228 0 64 4.47715 64 10V54C64 59.5228 59.5228 64 54 64H10C4.47715 64 0 59.5228 0 54V10Z" fill="#1F1F1F"/>
<path d="M32.231 48.7549L53.462 43.4386V47.6459L32.1162 53L11 47.4187V43.1799L32.231 48.7549Z" fill="white"/>
<path d="M32.231 40.7095L53.462 35.3933V39.6005L32.1162 44.9546L11 39.3733V35.1345L32.231 40.7095Z" fill="white"/>
<path d="M32.231 32.6641L53.462 27.3479V31.5551L32.1162 36.9093L11 31.328V27.0892L32.231 32.6641Z" fill="white"/>
<path d="M32.231 24.6203L53.462 19.3041V23.5113L32.1162 28.8655L11 23.2842V19.0454L32.231 24.6203Z" fill="white"/>
<path d="M32.231 16.575L53.462 11.2587V15.466L32.1162 20.8201L11 15.2388V11L32.231 16.575Z" fill="white"/>
</svg>
