<svg width="304" height="306" viewBox="0 0 304 306" fill="none" xmlns="http://www.w3.org/2000/svg">
<path d="M0 43C0 19.2518 19.2518 0 43 0H261C284.748 0 304 19.2518 304 43V263C304 286.748 284.748 306 261 306H43C19.2518 306 0 286.748 0 263V43Z" fill="#141414"/>
<path d="M126.654 35C191.462 35 244 87.6065 244 152.5C244 217.393 191.462 270 126.654 270C105.288 270 85.2557 264.282 68 254.291L79.2894 234.712C92.8429 242.3 108.466 246.625 125.097 246.625C177.013 246.625 219.099 204.484 219.099 152.5C219.099 100.516 177.013 58.3753 125.097 58.3753C108.479 58.3753 92.8669 62.6935 79.3207 70.2706L68.031 50.6907C85.2797 40.7112 105.301 35 126.654 35Z" fill="white"/>
<path d="M125.097 80.504C164.808 80.504 196.999 112.738 196.999 152.5C196.999 192.262 164.808 224.496 125.097 224.496C112.492 224.496 100.644 221.248 90.3429 215.542L101.242 196.639C108.335 200.491 116.461 202.679 125.097 202.679C152.774 202.679 175.211 180.213 175.211 152.5C175.211 124.787 152.774 102.321 125.097 102.321C116.474 102.321 108.359 104.502 101.273 108.343L90.3742 89.4408C100.668 83.7456 112.505 80.504 125.097 80.504Z" fill="white"/>
<path d="M125.097 124.45C140.569 124.45 153.111 137.008 153.111 152.5C153.111 167.992 140.569 180.55 125.097 180.55C120.487 180.55 116.137 179.435 112.301 177.459L126.713 152.465L112.333 127.524C116.161 125.559 120.5 124.45 125.097 124.45Z" fill="white"/>
</svg>
