<svg width="676" height="180" viewBox="0 0 676 180" fill="none" xmlns="http://www.w3.org/2000/svg">
<path d="M44.9901 0C94.7012 0 135 40.2944 135 90C135 139.706 94.7012 180 44.9901 180C28.6014 180 13.2359 175.62 0 167.968L8.65947 152.971C19.0556 158.783 31.039 162.095 43.7963 162.095C83.6179 162.095 115.9 129.817 115.9 90C115.9 50.1828 83.6179 17.9045 43.7963 17.9045C31.0489 17.9045 19.074 21.212 8.68348 27.0158L0.0237821 12.0184C13.2543 4.37452 28.6112 0 44.9901 0Z" fill="white"/>
<path d="M43.7963 34.8541C74.2559 34.8541 98.9483 59.5438 98.9483 90C98.9483 120.456 74.2559 145.146 43.7963 145.146C34.1272 145.146 25.0394 142.658 17.138 138.287L25.4979 123.809C30.9388 126.759 37.1718 128.435 43.7963 128.435C65.0257 128.435 82.2355 111.227 82.2355 90C82.2355 68.7729 65.0257 51.565 43.7963 51.565C37.1817 51.565 30.9573 53.2356 25.5221 56.1777L17.162 41.6993C25.0578 37.337 34.137 34.8541 43.7963 34.8541Z" fill="white"/>
<path d="M43.7963 68.5146C55.6637 68.5146 65.2841 78.1339 65.2841 90C65.2841 101.866 55.6637 111.485 43.7963 111.485C40.2599 111.485 36.9231 110.631 33.9808 109.118L45.0355 89.973L34.0053 70.8695C36.9415 69.364 40.2697 68.5146 43.7963 68.5146Z" fill="white"/>
<path d="M176.617 143V35.3635H196.115V126.655H243.522V143H176.617Z" fill="white"/>
<path d="M260.445 143V35.3635H330.451V51.7087H279.943V80.9303H326.824V97.2755H279.943V126.655H330.871V143H260.445Z" fill="white"/>
<path d="M350.343 35.3635H374.204L406.159 113.358H407.42L439.375 35.3635H463.235V143H444.525V69.0524H443.526L413.779 142.685H399.799L370.052 68.8948H369.053V143H350.343V35.3635Z" fill="white"/>
<path d="M552.319 35.3635H571.818V105.685C571.818 113.393 569.996 120.173 566.352 126.024C562.743 131.875 557.662 136.448 551.11 139.741C544.558 143 536.902 144.629 528.143 144.629C519.348 144.629 511.675 143 505.123 139.741C498.571 136.448 493.491 131.875 489.882 126.024C486.273 120.173 484.468 113.393 484.468 105.685V35.3635H503.967V104.055C503.967 108.54 504.948 112.534 506.91 116.038C508.907 119.542 511.71 122.293 515.319 124.29C518.928 126.252 523.203 127.233 528.143 127.233C533.083 127.233 537.358 126.252 540.967 124.29C544.611 122.293 547.414 119.542 549.376 116.038C551.338 112.534 552.319 108.54 552.319 104.055V35.3635Z" fill="white"/>
<path d="M593.011 143V35.3635H633.375C641.644 35.3635 648.581 36.8001 654.187 39.6732C659.828 42.5463 664.086 46.5756 666.959 51.7612C669.867 56.9118 671.321 62.9208 671.321 69.7882C671.321 76.6907 669.849 82.6822 666.906 87.7627C663.998 92.8081 659.706 96.7149 654.03 99.4828C648.354 102.216 641.381 103.582 633.112 103.582H604.364V87.3948H630.484C635.319 87.3948 639.279 86.7291 642.362 85.3976C645.445 84.0311 647.723 82.0515 649.194 79.4587C650.701 76.8309 651.454 73.6074 651.454 69.7882C651.454 65.9691 650.701 62.7106 649.194 60.0127C647.688 57.2797 645.393 55.2125 642.31 53.811C639.226 52.3744 635.249 51.6561 630.379 51.6561H612.51V143H593.011ZM648.616 94.2272L675.263 143H653.504L627.331 94.2272H648.616Z" fill="white"/>
</svg>
