<svg width="43" height="42" viewBox="0 0 43 42" fill="none" xmlns="http://www.w3.org/2000/svg">
<path d="M21.231 37.7549L42.462 32.4386V36.6459L21.1162 42L0 36.4187V32.1799L21.231 37.7549Z" fill="white"/>
<path d="M21.231 29.7095L42.462 24.3933V28.6005L21.1162 33.9546L0 28.3733V24.1345L21.231 29.7095Z" fill="white"/>
<path d="M21.231 21.6641L42.462 16.3479V20.5551L21.1162 25.9093L0 20.328V16.0892L21.231 21.6641Z" fill="white"/>
<path d="M21.231 13.6203L42.462 8.30409V12.5113L21.1162 17.8655L0 12.2842V8.04537L21.231 13.6203Z" fill="white"/>
<path d="M21.231 5.57497L42.462 0.258714V4.46597L21.1162 9.82009L0 4.23881V0L21.231 5.57497Z" fill="white"/>
</svg>
