<svg width="196" height="42" viewBox="0 0 196 42" fill="none" xmlns="http://www.w3.org/2000/svg">
<path d="M51.964 38.7692V1.17482H56.5666V34.7308H74.2343V38.7692H51.964Z" fill="white"/>
<path d="M90.1056 39.3566C87.359 39.3566 84.9897 38.757 82.9977 37.5577C81.0181 36.3462 79.4901 34.6573 78.4137 32.4913C77.3497 30.3129 76.8177 27.7797 76.8177 24.8916C76.8177 22.0035 77.3497 19.458 78.4137 17.2552C79.4901 15.0402 80.9872 13.3147 82.9049 12.0787C84.835 10.8304 87.0868 10.2063 89.6602 10.2063C91.1449 10.2063 92.6111 10.451 94.0586 10.9406C95.5062 11.4301 96.8239 12.2255 98.0116 13.3269C99.1993 14.4161 100.146 15.8601 100.851 17.6591C101.556 19.458 101.909 21.6731 101.909 24.3042V26.1399H79.9355V22.3951H97.4548C97.4548 20.8042 97.1332 19.3846 96.4898 18.1364C95.8588 16.8881 94.9556 15.903 93.7802 15.1809C92.6172 14.4589 91.2439 14.0979 89.6602 14.0979C87.9157 14.0979 86.4063 14.5262 85.1319 15.3829C83.87 16.2273 82.8987 17.3287 82.2182 18.6871C81.5378 20.0455 81.1975 21.5017 81.1975 23.0559V25.5524C81.1975 27.6818 81.5687 29.4869 82.311 30.9677C83.0658 32.4362 84.1112 33.5559 85.4474 34.3269C86.7837 35.0857 88.3364 35.465 90.1056 35.465C91.2563 35.465 92.2956 35.3059 93.2235 34.9878C94.1638 34.6573 94.9742 34.1678 95.6547 33.5192C96.3351 32.8584 96.861 32.0385 97.2321 31.0594L101.463 32.2343C101.018 33.6538 100.27 34.9021 99.2179 35.979C98.1663 37.0437 96.8672 37.8759 95.3206 38.4755C93.7741 39.0629 92.0357 39.3566 90.1056 39.3566Z" fill="white"/>
<path d="M105.958 38.7692V10.5734H110.19V14.979H110.561C111.155 13.4738 112.114 12.3051 113.437 11.4729C114.761 10.6285 116.351 10.2063 118.207 10.2063C120.088 10.2063 121.653 10.6285 122.902 11.4729C124.164 12.3051 125.148 13.4738 125.853 14.979H126.15C126.88 13.5227 127.975 12.3663 129.435 11.5096C130.895 10.6407 132.646 10.2063 134.687 10.2063C137.236 10.2063 139.321 10.9956 140.941 12.5743C142.562 14.1407 143.372 16.5822 143.372 19.8986V38.7692H138.993V19.8986C138.993 17.8182 138.417 16.3313 137.267 15.4379C136.116 14.5446 134.761 14.0979 133.202 14.0979C131.198 14.0979 129.645 14.6976 128.544 15.8969C127.443 17.0839 126.892 18.5892 126.892 20.4126V38.7692H122.438V19.458C122.438 17.8549 121.913 16.5638 120.861 15.5848C119.809 14.5935 118.454 14.0979 116.797 14.0979C115.658 14.0979 114.594 14.3977 113.605 14.9974C112.627 15.597 111.835 16.4292 111.229 17.4939C110.635 18.5463 110.338 19.764 110.338 21.1469V38.7692H105.958Z" fill="white"/>
<path d="M169.345 27.2413V10.5734H173.725V38.7692H169.345V33.9965H169.048C168.38 35.4283 167.341 36.646 165.93 37.6495C164.52 38.6407 162.738 39.1364 160.586 39.1364C158.804 39.1364 157.22 38.7509 155.835 37.9799C154.449 37.1967 153.36 36.0219 152.568 34.4554C151.776 32.8767 151.381 30.8881 151.381 28.4895V10.5734H155.76V28.1958C155.76 30.2517 156.342 31.8916 157.505 33.1154C158.68 34.3392 160.177 34.951 161.996 34.951C163.085 34.951 164.192 34.6757 165.318 34.125C166.456 33.5743 167.409 32.7299 168.176 31.5918C168.956 30.4537 169.345 29.0035 169.345 27.2413Z" fill="white"/>
<path d="M181.747 38.7692V10.5734H185.978V14.8322H186.275C186.795 13.4371 187.735 12.3051 189.096 11.4362C190.457 10.5673 191.991 10.1329 193.699 10.1329C194.02 10.1329 194.423 10.139 194.905 10.1512C195.388 10.1635 195.753 10.1818 196 10.2063V14.6119C195.852 14.5752 195.511 14.5201 194.979 14.4467C194.46 14.361 193.909 14.3182 193.328 14.3182C191.942 14.3182 190.705 14.6058 189.616 15.1809C188.539 15.7439 187.686 16.5271 187.055 17.5306C186.436 18.5219 186.127 19.6538 186.127 20.9266V38.7692H181.747Z" fill="white"/>
<path d="M21.231 37.7549L42.462 32.4386V36.6459L21.1162 42L0 36.4187V32.1799L21.231 37.7549Z" fill="white"/>
<path d="M21.231 29.7095L42.462 24.3933V28.6005L21.1162 33.9546L0 28.3733V24.1345L21.231 29.7095Z" fill="white"/>
<path d="M21.231 21.6641L42.462 16.3479V20.5551L21.1162 25.9093L0 20.328V16.0892L21.231 21.6641Z" fill="white"/>
<path d="M21.231 13.6203L42.462 8.30409V12.5113L21.1162 17.8655L0 12.2842V8.04537L21.231 13.6203Z" fill="white"/>
<path d="M21.231 5.57497L42.462 0.258714V4.46597L21.1162 9.82009L0 4.23881V0L21.231 5.57497Z" fill="white"/>
</svg>
