<svg width="121" height="26" viewBox="0 0 121 26" fill="none" xmlns="http://www.w3.org/2000/svg">
<path d="M13 23.3721L26 20.0811V22.6855L12.9297 26L0 22.5449V19.9209L13 23.3721ZM54.9004 6.31836C55.8092 6.3184 56.7067 6.46958 57.5928 6.77246C58.4791 7.07549 59.2864 7.56818 60.0137 8.25C60.7409 8.92419 61.3201 9.81814 61.752 10.9316C62.1838 12.0453 62.4004 13.4171 62.4004 15.0459V16.1816H49.7256C49.764 17.343 49.9882 18.3397 50.4004 19.1709C50.8625 20.0797 51.5023 20.7728 52.3203 21.25C53.1385 21.7197 54.0895 21.9541 55.1729 21.9541C55.8773 21.9541 56.5139 21.8561 57.082 21.6592C57.6577 21.4546 58.1537 21.1514 58.5703 20.75C58.9869 20.341 59.3089 19.8335 59.5361 19.2275L62.127 19.9541C61.8542 20.8329 61.3959 21.6058 60.752 22.2725C60.1081 22.9315 59.3131 23.4472 58.3662 23.8184C57.4193 24.182 56.3546 24.3633 55.1729 24.3633C53.491 24.3633 52.04 23.9924 50.8203 23.25C49.6082 22.5 48.6727 21.4542 48.0137 20.1133C47.3623 18.7649 47.0361 17.1969 47.0361 15.4092C47.0361 13.6213 47.3622 12.0453 48.0137 10.6816C48.6727 9.31054 49.5895 8.24266 50.7637 7.47754C51.9455 6.70481 53.3246 6.31836 54.9004 6.31836ZM95.374 17.4541C95.374 18.7268 95.7303 19.7424 96.4424 20.5C97.1621 21.2575 98.0788 21.6367 99.1924 21.6367C99.8589 21.6367 100.537 21.4659 101.227 21.125C101.923 20.7841 102.507 20.2611 102.977 19.5566C103.454 18.8521 103.692 17.954 103.692 16.8633V6.5459H106.374V24H103.692V21.0459H103.51C103.101 21.9319 102.465 22.6856 101.602 23.3066C100.738 23.9203 99.6463 24.2275 98.3281 24.2275C97.2373 24.2275 96.2674 23.989 95.4189 23.5117C94.5705 23.0269 93.9038 22.2987 93.4189 21.3291C92.9343 20.352 92.6924 19.1212 92.6924 17.6367V6.5459H95.374V17.4541ZM34.6367 21.5H45.4541V24H31.8184V0.727539H34.6367V21.5ZM82.4707 6.31836C84.0312 6.31841 85.3074 6.80699 86.2998 7.78418C87.2922 8.75388 87.7891 10.2653 87.7891 12.3184V24H85.1064V12.3184C85.1064 11.0305 84.7544 10.1097 84.0498 9.55664C83.3453 9.00375 82.5159 8.72757 81.5615 8.72754C80.3343 8.72754 79.3832 9.0984 78.709 9.84082C78.0347 10.5757 77.6973 11.5079 77.6973 12.6367V24H74.9707V12.0459C74.9707 11.0535 74.6488 10.2535 74.0049 9.64746C73.3609 9.03382 72.5308 8.72754 71.5156 8.72754C70.8188 8.72759 70.1675 8.91305 69.5615 9.28418C68.9631 9.65536 68.4776 10.1701 68.1064 10.8291C67.7428 11.4806 67.5615 12.2348 67.5615 13.0908V24H64.8799V6.5459H67.4707V9.27246H67.6973C68.0609 8.34075 68.6485 7.61767 69.459 7.10254C70.2696 6.57981 71.2435 6.31836 72.3799 6.31836C73.5312 6.31841 74.4898 6.57986 75.2549 7.10254C76.0274 7.61765 76.6298 8.34086 77.0615 9.27246H77.2432C77.6901 8.37104 78.361 7.65526 79.2549 7.125C80.1488 6.58722 81.2208 6.31836 82.4707 6.31836ZM119.343 6.28418C119.638 6.29175 119.861 6.30323 120.013 6.31836V9.0459C119.922 9.02317 119.713 8.98877 119.388 8.94336C119.07 8.89038 118.733 8.86329 118.377 8.86328C117.528 8.86328 116.77 9.0414 116.104 9.39746C115.445 9.74594 114.922 10.2314 114.536 10.8525C114.157 11.4661 113.968 12.1664 113.968 12.9541V24H111.286V6.5459H113.877V9.18164H114.059C114.377 8.31809 114.953 7.61694 115.786 7.0791C116.619 6.54149 117.558 6.27254 118.604 6.27246C118.8 6.27246 119.047 6.2766 119.343 6.28418ZM13 18.3916L26 15.1006V17.7051L12.9297 21.0195L0 17.5645V14.9404L13 18.3916ZM13 13.4111L26 10.1201V12.7246L12.9297 16.0391L0 12.584V9.95996L13 13.4111ZM54.9004 8.72754C53.8322 8.72754 52.9073 8.99216 52.127 9.52246C51.3543 10.0452 50.7594 10.7275 50.3428 11.5684C49.9858 12.2888 49.7825 13.0539 49.7314 13.8633H59.6729C59.6728 12.8787 59.4758 12.0001 59.082 11.2275C58.6957 10.4548 58.1425 9.84443 57.4229 9.39746C56.7108 8.95056 55.8699 8.7276 54.9004 8.72754ZM13 8.43164L26 5.14062V7.74512L12.9297 11.0596L0 7.60449V4.98047L13 8.43164ZM13 3.45117L26 0.160156V2.76465L12.9297 6.0791L0 2.62402V0L13 3.45117Z" fill="#151519"/>
</svg>
