<svg width="739" height="407" viewBox="0 0 739 407" fill="none" xmlns="http://www.w3.org/2000/svg">
<path d="M202 0C307.973 0 394.886 82.2114 403.327 186.78L397.114 195.133H395.841V157.496H370.568V250.587H395.841V226.587L403.595 216.472C396.954 322.817 309.236 407 202 407C90.4385 407 0 315.89 0 203.5C0 91.1101 90.4385 0 202 0ZM127.712 162.631C108.905 147.093 78.2822 153.109 59.3135 176.067C40.3449 199.026 40.2129 230.235 59.0195 245.773C77.8265 261.312 108.45 255.295 127.419 232.336C146.387 209.377 146.519 178.169 127.712 162.631ZM487.341 214.951C487.341 217.83 487.977 220.405 489.25 222.678C490.523 224.92 492.28 226.678 494.522 227.951C496.795 229.224 499.371 229.86 502.25 229.86C505.159 229.86 507.735 229.224 509.978 227.951C512.22 226.678 513.977 224.92 515.25 222.678C516.523 220.405 517.159 217.83 517.159 214.951V157.496H542.432V217.133C542.432 224.224 540.735 230.36 537.341 235.542C533.977 240.693 529.28 244.678 523.25 247.496C517.22 250.284 510.22 251.678 502.25 251.678C494.22 251.678 487.189 250.284 481.159 247.496C475.129 244.678 470.432 240.693 467.068 235.542C463.735 230.36 462.068 224.224 462.068 217.133V157.496H487.341V214.951ZM190.694 157.496L150.967 250.589H175.694L197.694 196.405H198.422L217.875 249.86H232.784L253.512 196.77H254.239V250.587H278.966V157.496H247.512L225.875 210.224H224.784L207.148 157.496H190.694ZM290.943 157.496V250.587H357.853V230.224H316.217V214.224H354.58V193.86H316.217V177.86H358.034V157.496H290.943ZM423.113 198.951L455.296 250.587H425.113L404.205 215.678L403.595 216.472C403.863 212.182 404 207.857 404 203.5C404 197.87 403.772 192.294 403.327 186.78L425.113 157.496H454.568L423.113 198.951ZM579.716 195.133H580.988L608.988 157.496H638.443L606.988 198.951L639.171 250.587H608.988L588.08 215.678L579.716 226.587V250.587H554.443V157.496H579.716V195.133ZM738.854 250.587H711.581L706.202 232.77H675.505L670.126 250.587H642.853L673.581 157.496H708.126L738.854 250.587ZM117.68 214.496C116.503 216.449 115.154 218.36 113.632 220.202C101.322 235.101 82.4344 239.818 71.4434 230.737C66.7256 226.839 64.2322 221.033 63.8936 214.496H117.68ZM681.213 213.86H700.493L691.217 183.133H690.489L681.213 213.86ZM73.8301 187.318C86.1395 172.419 105.028 167.703 116.02 176.783C120.851 180.775 123.351 186.767 123.592 193.496H69.5039C70.7449 191.38 72.1862 189.308 73.8301 187.318Z" fill="white"/>
</svg>
