<svg width="694" height="101" viewBox="0 0 694 101" fill="none" xmlns="http://www.w3.org/2000/svg">
<path fill-rule="evenodd" clip-rule="evenodd" d="M14.3128 22.067C33.2816 -0.891898 63.9053 -6.9076 82.7122 8.63052C101.519 24.1687 101.388 55.3774 82.4193 78.3366C63.4506 101.296 32.8268 107.312 14.0198 91.7741C-4.78711 76.2358 -4.65591 45.0262 14.3128 22.067ZM442.341 60.9508C442.341 63.8296 442.978 66.4056 444.25 68.6784C445.523 70.9207 447.28 72.6781 449.523 73.9508C451.796 75.2236 454.372 75.86 457.25 75.86C460.159 75.86 462.735 75.2234 464.977 73.9508C467.219 72.6781 468.978 70.9208 470.25 68.6784C471.523 66.4056 472.159 63.8296 472.159 60.9508V3.49673H497.432V63.1325C497.432 70.2233 495.735 76.3599 492.341 81.5416C488.978 86.6931 484.281 90.6785 478.25 93.4967C472.22 96.2846 465.22 97.6783 457.25 97.6784C449.22 97.6784 442.19 96.2845 436.159 93.4967C430.129 90.6786 425.432 86.6931 422.069 81.5416C418.735 76.3598 417.069 70.2234 417.069 63.1325V3.49673H442.341V60.9508ZM179.784 56.2233H180.875L202.512 3.49673H233.966V96.5875H209.239V42.7692H208.512L187.784 95.86H172.875L153.421 42.4059H152.695L130.694 96.5885H105.967L145.695 3.49673H162.149L179.784 56.2233ZM313.034 23.86H271.216V39.86H309.58V60.2233H271.216V76.2233H312.853V96.5875H245.944V3.49673H313.034V23.86ZM350.841 41.1325H352.114L380.114 3.49673H409.569L378.114 44.9508L410.295 96.5875H380.114L359.204 61.6784L350.841 72.5875V96.5875H325.569V3.49673H350.841V41.1325ZM534.716 41.1325H535.989L563.989 3.49673H593.444L561.989 44.9508L594.171 96.5875H563.989L543.079 61.6784L534.716 72.5875V96.5875H509.444V3.49673H534.716V41.1325ZM693.854 96.5875H666.58L661.201 78.7692H630.505L625.126 96.5875H597.853L628.58 3.49673H663.126L693.854 96.5875ZM18.8939 60.4967C19.2326 67.0329 21.7252 72.8393 26.4427 76.737C37.4338 85.8177 56.3226 81.1008 68.6321 66.2018C70.1537 64.3601 71.5035 62.449 72.68 60.4967H18.8939ZM636.213 59.86H655.493L646.217 29.1325H645.49L636.213 59.86ZM71.0198 22.7829C60.0287 13.7022 41.1399 18.419 28.8304 33.318C27.1862 35.3081 25.7444 37.3802 24.5032 39.4967H78.5921C78.3516 32.7677 75.8511 26.7745 71.0198 22.7829Z" fill="white"/>
</svg>
